<mxfile host="drawio-plugin" modified="2021-05-05T16:39:35.355Z" agent="5.0 (X11; Linux x86_64) AppleWebKit/537.36 (KHTML, like Gecko) Chrome/87.0.4280.141 Safari/537.36" etag="Lw-99J0FPidmm36biKqf" version="13.7.9" type="embed"><diagram id="C5RBs43oDa-KdzZeNtuy" name="Page-1"><mxGraphModel dx="992" dy="709" grid="1" gridSize="10" guides="1" tooltips="1" connect="1" arrows="1" fold="1" page="1" pageScale="1" pageWidth="827" pageHeight="1169" background="#F4F1DE" math="0" shadow="0"><root><mxCell id="WIyWlLk6GJQsqaUBKTNV-0"/><mxCell id="WIyWlLk6GJQsqaUBKTNV-1" parent="WIyWlLk6GJQsqaUBKTNV-0"/><mxCell id="NTAmd5EcglqV2j0BJcSU-0" value="&amp;lt;&amp;lt;Interface&amp;gt;&amp;gt;&lt;br&gt;&lt;b&gt;AbstractParser&lt;/b&gt;" style="swimlane;fontStyle=2;align=center;verticalAlign=top;childLayout=stackLayout;horizontal=1;startSize=40;horizontalStack=0;resizeParent=1;resizeParentMax=0;resizeLast=0;collapsible=1;marginBottom=0;html=1;fillColor=#F2CC8F;strokeColor=#E07A5F;fontColor=#393C56;" parent="WIyWlLk6GJQsqaUBKTNV-1" vertex="1"><mxGeometry x="180" y="30" width="160" height="70" as="geometry"/></mxCell><mxCell id="NTAmd5EcglqV2j0BJcSU-1" value="+ request()" style="text;strokeColor=none;fillColor=none;align=left;verticalAlign=top;spacingLeft=4;spacingRight=4;overflow=hidden;rotatable=0;points=[[0,0.5],[1,0.5]];portConstraint=eastwest;fontColor=#393C56;" parent="NTAmd5EcglqV2j0BJcSU-0" vertex="1"><mxGeometry y="40" width="160" height="30" as="geometry"/></mxCell><mxCell id="NTAmd5EcglqV2j0BJcSU-2" value="&lt;b style=&quot;font-style: normal&quot;&gt;Parser&lt;/b&gt;" style="swimlane;fontStyle=2;align=center;verticalAlign=top;childLayout=stackLayout;horizontal=1;startSize=30;horizontalStack=0;resizeParent=1;resizeParentMax=0;resizeLast=0;collapsible=1;marginBottom=0;html=1;fillColor=#F2CC8F;strokeColor=#E07A5F;fontColor=#393C56;" parent="WIyWlLk6GJQsqaUBKTNV-1" vertex="1"><mxGeometry x="50" y="150" width="160" height="60" as="geometry"/></mxCell><mxCell id="NTAmd5EcglqV2j0BJcSU-3" value="+ request()" style="text;strokeColor=none;fillColor=none;align=left;verticalAlign=top;spacingLeft=4;spacingRight=4;overflow=hidden;rotatable=0;points=[[0,0.5],[1,0.5]];portConstraint=eastwest;fontColor=#393C56;" parent="NTAmd5EcglqV2j0BJcSU-2" vertex="1"><mxGeometry y="30" width="160" height="30" as="geometry"/></mxCell><mxCell id="NTAmd5EcglqV2j0BJcSU-6" value="ProxyParser" style="swimlane;fontStyle=1;align=center;verticalAlign=top;childLayout=stackLayout;horizontal=1;startSize=26;horizontalStack=0;resizeParent=1;resizeParentMax=0;resizeLast=0;collapsible=1;marginBottom=0;fontColor=#393C56;fillColor=#F2CC8F;strokeColor=#E07A5F;" parent="WIyWlLk6GJQsqaUBKTNV-1" vertex="1"><mxGeometry x="290" y="140" width="220" height="140" as="geometry"/></mxCell><mxCell id="NTAmd5EcglqV2j0BJcSU-7" value="# _parser: Parser" style="text;strokeColor=none;fillColor=none;align=left;verticalAlign=top;spacingLeft=4;spacingRight=4;overflow=hidden;rotatable=0;points=[[0,0.5],[1,0.5]];portConstraint=eastwest;fontColor=#393C56;" parent="NTAmd5EcglqV2j0BJcSU-6" vertex="1"><mxGeometry y="26" width="220" height="26" as="geometry"/></mxCell><mxCell id="NTAmd5EcglqV2j0BJcSU-8" value="" style="line;strokeWidth=1;fillColor=none;align=left;verticalAlign=middle;spacingTop=-1;spacingLeft=3;spacingRight=3;rotatable=0;labelPosition=right;points=[];portConstraint=eastwest;labelBackgroundColor=#F4F1DE;strokeColor=#E07A5F;fontColor=#393C56;" parent="NTAmd5EcglqV2j0BJcSU-6" vertex="1"><mxGeometry y="52" width="220" height="8" as="geometry"/></mxCell><mxCell id="NTAmd5EcglqV2j0BJcSU-9" value="+ request(): requests.models.Response&#10;+ get_text(): str&#10;# _connect()&#10;# _check_status()&#10;# _logger()&#10;" style="text;strokeColor=none;fillColor=none;align=left;verticalAlign=top;spacingLeft=4;spacingRight=4;overflow=hidden;rotatable=0;points=[[0,0.5],[1,0.5]];portConstraint=eastwest;fontColor=#393C56;" parent="NTAmd5EcglqV2j0BJcSU-6" vertex="1"><mxGeometry y="60" width="220" height="80" as="geometry"/></mxCell><mxCell id="NTAmd5EcglqV2j0BJcSU-11" style="edgeStyle=orthogonalEdgeStyle;rounded=0;orthogonalLoop=1;jettySize=auto;html=1;exitX=0.5;exitY=0;exitDx=0;exitDy=0;endSize=11;startSize=11;endArrow=block;endFill=0;dashed=1;entryX=0;entryY=0.25;entryDx=0;entryDy=0;labelBackgroundColor=#F4F1DE;strokeColor=#E07A5F;fontColor=#393C56;" parent="WIyWlLk6GJQsqaUBKTNV-1" source="NTAmd5EcglqV2j0BJcSU-2" target="NTAmd5EcglqV2j0BJcSU-0" edge="1"><mxGeometry relative="1" as="geometry"><mxPoint x="120" y="415" as="sourcePoint"/><mxPoint x="80" y="70" as="targetPoint"/></mxGeometry></mxCell><mxCell id="NTAmd5EcglqV2j0BJcSU-12" value="Realizes" style="edgeLabel;html=1;align=center;verticalAlign=middle;resizable=0;points=[];fontColor=#393C56;labelBackgroundColor=#F4F1DE;" parent="NTAmd5EcglqV2j0BJcSU-11" vertex="1" connectable="0"><mxGeometry x="0.2408" y="-2" relative="1" as="geometry"><mxPoint as="offset"/></mxGeometry></mxCell><mxCell id="NTAmd5EcglqV2j0BJcSU-13" style="edgeStyle=orthogonalEdgeStyle;rounded=0;orthogonalLoop=1;jettySize=auto;html=1;entryX=1;entryY=0.25;entryDx=0;entryDy=0;endSize=11;startSize=11;endArrow=block;endFill=0;dashed=1;exitX=0.5;exitY=0;exitDx=0;exitDy=0;labelBackgroundColor=#F4F1DE;strokeColor=#E07A5F;fontColor=#393C56;" parent="WIyWlLk6GJQsqaUBKTNV-1" source="NTAmd5EcglqV2j0BJcSU-6" target="NTAmd5EcglqV2j0BJcSU-0" edge="1"><mxGeometry relative="1" as="geometry"><mxPoint x="480" y="100" as="sourcePoint"/><mxPoint x="140" y="160" as="targetPoint"/></mxGeometry></mxCell><mxCell id="NTAmd5EcglqV2j0BJcSU-14" value="Realizes" style="edgeLabel;html=1;align=center;verticalAlign=middle;resizable=0;points=[];fontColor=#393C56;labelBackgroundColor=#F4F1DE;" parent="NTAmd5EcglqV2j0BJcSU-13" vertex="1" connectable="0"><mxGeometry x="0.2408" y="-2" relative="1" as="geometry"><mxPoint as="offset"/></mxGeometry></mxCell><mxCell id="NTAmd5EcglqV2j0BJcSU-15" style="edgeStyle=orthogonalEdgeStyle;rounded=0;orthogonalLoop=1;jettySize=auto;html=1;exitX=0;exitY=0.5;exitDx=0;exitDy=0;entryX=1;entryY=0.25;entryDx=0;entryDy=0;endSize=11;startSize=11;endArrow=open;endFill=0;dashed=1;fontColor=#393C56;labelBackgroundColor=#F4F1DE;strokeColor=#E07A5F;" parent="WIyWlLk6GJQsqaUBKTNV-1" source="NTAmd5EcglqV2j0BJcSU-7" target="NTAmd5EcglqV2j0BJcSU-2" edge="1"><mxGeometry relative="1" as="geometry"><mxPoint x="159.20000000000005" y="380.0486666666666" as="sourcePoint"/><mxPoint x="110" y="467.9166666666665" as="targetPoint"/></mxGeometry></mxCell><mxCell id="NTAmd5EcglqV2j0BJcSU-16" value="Ask for" style="edgeLabel;html=1;align=center;verticalAlign=middle;resizable=0;points=[];fontColor=#393C56;labelBackgroundColor=#F4F1DE;" parent="NTAmd5EcglqV2j0BJcSU-15" vertex="1" connectable="0"><mxGeometry x="0.2408" y="-2" relative="1" as="geometry"><mxPoint as="offset"/></mxGeometry></mxCell><mxCell id="NTAmd5EcglqV2j0BJcSU-17" value="Client" style="html=1;fillColor=#F2CC8F;strokeColor=#E07A5F;fontColor=#393C56;" parent="WIyWlLk6GJQsqaUBKTNV-1" vertex="1"><mxGeometry x="180" y="320" width="110" height="50" as="geometry"/></mxCell><mxCell id="NTAmd5EcglqV2j0BJcSU-18" style="edgeStyle=orthogonalEdgeStyle;rounded=0;orthogonalLoop=1;jettySize=auto;html=1;exitX=1;exitY=0.5;exitDx=0;exitDy=0;endSize=11;startSize=11;endArrow=open;endFill=0;dashed=1;fontColor=#393C56;labelBackgroundColor=#F4F1DE;strokeColor=#E07A5F;" parent="WIyWlLk6GJQsqaUBKTNV-1" source="NTAmd5EcglqV2j0BJcSU-17" target="NTAmd5EcglqV2j0BJcSU-9" edge="1"><mxGeometry relative="1" as="geometry"><mxPoint x="419.20000000000005" y="360.0486666666666" as="sourcePoint"/><mxPoint x="370" y="447.9166666666665" as="targetPoint"/></mxGeometry></mxCell><mxCell id="NTAmd5EcglqV2j0BJcSU-19" value="Uses" style="edgeLabel;html=1;align=center;verticalAlign=middle;resizable=0;points=[];fontColor=#393C56;labelBackgroundColor=#F4F1DE;" parent="NTAmd5EcglqV2j0BJcSU-18" vertex="1" connectable="0"><mxGeometry x="0.2408" y="-2" relative="1" as="geometry"><mxPoint as="offset"/></mxGeometry></mxCell></root></mxGraphModel></diagram></mxfile>